<svg width="300" height="300" viewBox="0 0 300 300" fill="none" xmlns="http://www.w3.org/2000/svg">
<path d="M237.5 100C227.083 100 218.229 96.3542 210.938 89.0625C203.646 81.7708 200 72.9167 200 62.5C200 52.0833 203.646 43.2292 210.938 35.9375C218.229 28.6458 227.083 25 237.5 25C247.917 25 256.771 28.6458 264.062 35.9375C271.354 43.2292 275 52.0833 275 62.5C275 72.9167 271.354 81.7708 264.062 89.0625C256.771 96.3542 247.917 100 237.5 100ZM50 250C43.125 250 37.2396 247.552 32.3438 242.656C27.4479 237.76 25 231.875 25 225V75C25 68.125 27.4479 62.2396 32.3438 57.3438C37.2396 52.4479 43.125 50 50 50H176.25C175.417 54.1667 175 58.3333 175 62.5C175 66.6667 175.417 70.8333 176.25 75C177.708 81.6667 180.104 87.8646 183.438 93.5938C186.771 99.3229 190.833 104.375 195.625 108.75L150 137.5L50 75V100L150 162.5L215.938 121.25C219.479 122.5 223.021 123.438 226.562 124.062C230.104 124.688 233.75 125 237.5 125C244.167 125 250.729 123.958 257.188 121.875C263.646 119.792 269.583 116.667 275 112.5V225C275 231.875 272.552 237.76 267.656 242.656C262.76 247.552 256.875 250 250 250H50Z" fill="#1D1B20"/>
</svg>
